<?xml version="1.0" encoding="UTF-8"?>
<svg height="600" width="800" xmlns="http://www.w3.org/2000/svg" xmlns:xlink="http://www.w3.org/1999/xlink">
    <g id="Notes" font-family="'LucidaGrande', 'Lucida Grande', sans-serif" font-size="13">
        <rect fill="white" height="600.0" width="800.0" x="0.0" y="0.0" />
        <g font-size="13">
            <text x="18.0" y="176.0">Small</text>
            <text x="18.0" y="376.0">Medium</text>
            <text x="18.0" y="576.0">Large</text>
        </g>
        <g font-size="9">
            <text x="250.0" y="30.0">Ultralight</text>
            <text x="450.0" y="30.0">Regular</text>
            <text x="650.0" y="30.0">Black</text>
            <text id="template-version" fill="#505050" text-anchor="end" x="785.0" y="575.0">Template v.3.0</text>
            <a href="https://wangchujiang.com/#/app">
                <text fill="#505050" text-anchor="end" x="785.0" y="590.0">https://wangchujiang.com/#/app</text>
            </a>
        </g>
    </g>
    <g id="Guides" stroke="rgb(39, 170, 225)" stroke-width="0.5">
        <path id="Capline-S" d="M18,76 l800,0" />
        <path id="H-reference" d="M85,145.755 L87.685,145.755 L113.369,79.287 L114.052,79.287 L114.052,76 L112.148,76 L85,145.755 Z M95.693,121.536 L130.996,121.536 L130.263,119.313 L96.474,119.313 L95.693,121.536 Z M139.15,145.755 L141.787,145.755 L114.638,76 L113.466,76 L113.466,79.287 L139.15,145.755 Z" stroke="none" />
        <path id="Baseline-S" d="M18,146 l800,0" />
        <path id="left-margin-Ultralight-S" d="M211,56 l0,110" />
        <path id="right-margin-Ultralight-S" d="M319,56 l0,110" />
        <path id="left-margin-Regular-S" d="M411,56 l0,110" />
        <path id="right-margin-Regular-S" d="M519,56 l0,110" />
        <path id="left-margin-Black-S" d="M611,56 l0,110" />
        <path id="right-margin-Black-S" d="M719,56 l0,110" />
        <path id="Capline-M" d="M18,276 l800,0" />
        <path id="Baseline-M" d="M18,346 l800,0" />
        <path id="Capline-L" d="M18,476 l800,0" />
        <path id="Baseline-L" d="M18,546 l800,0" />
    </g>
    <g id="Symbols">
        <g id="Ultralight-S">
            <path d="M277.388,77.476 C276.528,79.011 275.756,80.598 275.054,82.221 C268.385,81.216 261.593,81.216 254.907,82.221 C254.222,80.598 253.433,79.011 252.573,77.476 C246.307,78.552 240.2,80.44 234.409,83.103 C222.931,100.196 219.825,116.847 221.369,133.27 C228.091,138.262 235.62,142.072 243.64,144.506 C245.447,142.072 247.044,139.479 248.413,136.78 C245.816,135.81 243.306,134.593 240.902,133.182 C241.534,132.723 242.148,132.247 242.745,131.788 C256.837,138.456 273.159,138.456 287.269,131.788 C287.865,132.282 288.479,132.758 289.111,133.182 C286.707,134.61 284.197,135.81 281.582,136.798 C282.951,139.497 284.548,142.09 286.356,144.524 C294.376,142.09 301.905,138.297 308.627,133.305 C310.452,114.254 305.503,97.744 295.552,83.121 C289.778,80.457 283.671,78.57 277.406,77.511 L277.388,77.476 Z M250.379,123.162 C246.044,123.162 242.446,119.211 242.446,114.325 C242.446,109.439 245.904,105.47 250.361,105.47 C254.819,105.47 258.364,109.457 258.294,114.325 C258.224,119.194 254.801,123.162 250.379,123.162 Z M279.617,123.162 C275.264,123.162 271.702,119.211 271.702,114.325 C271.702,109.439 275.159,105.47 279.617,105.47 C284.075,105.47 287.602,109.457 287.532,114.325 C287.462,119.194 284.039,123.162 279.617,123.162 Z" />
        </g>
        <g id="Regular-S">
            <path d="M477.388,77.476 C476.528,79.011 475.756,80.598 475.054,82.221 C468.385,81.216 461.593,81.216 454.907,82.221 C454.222,80.598 453.433,79.011 452.573,77.476 C446.307,78.552 440.2,80.44 434.409,83.103 C422.931,100.196 419.825,116.847 421.369,133.27 C428.091,138.262 435.62,142.072 443.64,144.506 C445.447,142.072 447.044,139.479 448.413,136.78 C445.816,135.81 443.306,134.593 440.902,133.182 C441.534,132.723 442.148,132.247 442.745,131.788 C456.837,138.456 473.159,138.456 487.269,131.788 C487.865,132.282 488.479,132.758 489.111,133.182 C486.707,134.61 484.197,135.81 481.582,136.798 C482.951,139.497 484.548,142.09 486.356,144.524 C494.376,142.09 501.905,138.297 508.627,133.305 C510.452,114.254 505.503,97.744 495.552,83.121 C489.778,80.457 483.671,78.57 477.406,77.511 L477.388,77.476 Z M450.379,123.162 C446.044,123.162 442.446,119.211 442.446,114.325 C442.446,109.439 445.904,105.47 450.361,105.47 C454.819,105.47 458.364,109.457 458.294,114.325 C458.224,119.194 454.801,123.162 450.379,123.162 Z M479.617,123.162 C475.264,123.162 471.702,119.211 471.702,114.325 C471.702,109.439 475.159,105.47 479.617,105.47 C484.075,105.47 487.602,109.457 487.532,114.325 C487.462,119.194 484.039,123.162 479.617,123.162 Z" />
        </g>
        <g id="Black-S">
            <path d="M677.388,77.476 C676.528,79.011 675.756,80.598 675.054,82.221 C668.385,81.216 661.593,81.216 654.907,82.221 C654.222,80.598 653.432,79.011 652.573,77.476 C646.307,78.552 640.2,80.44 634.409,83.103 C622.931,100.196 619.825,116.847 621.369,133.27 C628.091,138.262 635.62,142.072 643.64,144.506 C645.447,142.072 647.044,139.479 648.413,136.78 C645.816,135.81 643.306,134.593 640.902,133.182 C641.534,132.723 642.148,132.247 642.745,131.788 C656.837,138.456 673.159,138.456 687.268,131.788 C687.865,132.282 688.479,132.758 689.111,133.182 C686.707,134.61 684.197,135.81 681.582,136.798 C682.951,139.497 684.548,142.09 686.356,144.524 C694.376,142.09 701.905,138.297 708.627,133.305 C710.452,114.254 705.503,97.744 695.552,83.121 C689.778,80.457 683.671,78.57 677.406,77.511 L677.388,77.476 Z M650.379,123.162 C646.044,123.162 642.446,119.211 642.446,114.325 C642.446,109.439 645.904,105.47 650.361,105.47 C654.819,105.47 658.364,109.457 658.294,114.325 C658.224,119.194 654.801,123.162 650.379,123.162 Z M679.617,123.162 C675.264,123.162 671.702,119.211 671.702,114.325 C671.702,109.439 675.159,105.47 679.617,105.47 C684.075,105.47 687.602,109.457 687.532,114.325 C687.462,119.194 684.039,123.162 679.617,123.162 Z" />
        </g>
    </g>
</svg>