<?xml version="1.0" encoding="UTF-8"?>
<svg height="600" width="800" xmlns="http://www.w3.org/2000/svg" xmlns:xlink="http://www.w3.org/1999/xlink">
    <g id="Notes" font-family="'LucidaGrande', 'Lucida Grande', sans-serif" font-size="13">
        <rect fill="white" height="600.0" width="800.0" x="0.0" y="0.0" />
        <g font-size="13">
            <text x="18.0" y="176.0">Small</text>
            <text x="18.0" y="376.0">Medium</text>
            <text x="18.0" y="576.0">Large</text>
        </g>
        <g font-size="9">
            <text x="250.0" y="30.0">Ultralight</text>
            <text x="450.0" y="30.0">Regular</text>
            <text x="650.0" y="30.0">Black</text>
            <text id="template-version" fill="#505050" text-anchor="end" x="785.0" y="575.0">Template v.3.0</text>
            <a href="https://wangchujiang.com/#/app">
                <text fill="#505050" text-anchor="end" x="785.0" y="590.0">https://wangchujiang.com/#/app</text>
            </a>
        </g>
    </g>
    <g id="Guides" stroke="rgb(39, 170, 225)" stroke-width="0.5">
        <path id="Capline-S" d="M18,76 l800,0" />
        <path id="H-reference" d="M85,145.755 L87.685,145.755 L113.369,79.287 L114.052,79.287 L114.052,76 L112.148,76 L85,145.755 Z M95.693,121.536 L130.996,121.536 L130.263,119.313 L96.474,119.313 L95.693,121.536 Z M139.15,145.755 L141.787,145.755 L114.638,76 L113.466,76 L113.466,79.287 L139.15,145.755 Z" stroke="none" />
        <path id="Baseline-S" d="M18,146 l800,0" />
        <path id="left-margin-Ultralight-S" d="M211,56 l0,110" />
        <path id="right-margin-Ultralight-S" d="M319,56 l0,110" />
        <path id="left-margin-Regular-S" d="M411,56 l0,110" />
        <path id="right-margin-Regular-S" d="M519,56 l0,110" />
        <path id="left-margin-Black-S" d="M611,56 l0,110" />
        <path id="right-margin-Black-S" d="M719,56 l0,110" />
        <path id="Capline-M" d="M18,276 l800,0" />
        <path id="Baseline-M" d="M18,346 l800,0" />
        <path id="Capline-L" d="M18,476 l800,0" />
        <path id="Baseline-L" d="M18,546 l800,0" />
    </g>
    <g id="Symbols">
        <g id="Ultralight-S">
            <path d="M267.883,96.072 L268.886,103.343 L280.419,103.364 L280.419,103.385 C283.141,103.552 285.598,105.343 286.927,108.127 L282.424,108.127 C276.407,110.135 277.754,111.763 279.416,111.763 C277.754,111.763 276.407,113.39 276.407,115.398 L287.571,115.398 C286.583,119.1 283.73,121.691 280.419,121.896 L280.419,121.916 L272.647,121.896 L273.65,129.166 L280.419,129.187 C287.873,129.187 294.059,123.223 295.253,115.397 L305.991,115.377 L309,108.106 L294.895,108.127 C293.109,101.182 287.304,96.093 280.419,96.093 L267.883,96.072 Z" />
            <path d="M247.325,92.813 C240.439,92.813 234.634,97.902 232.849,104.847 L224.009,104.847 L221,112.118 L232.491,112.118 C233.685,119.944 239.871,125.907 247.325,125.907 L262.368,125.907 L261.365,118.636 L247.325,118.636 L247.325,118.615 C244.014,118.411 241.161,115.82 240.172,112.118 L245.319,112.118 C246.981,112.118 248.328,110.49 248.328,108.482 C248.328,106.475 246.981,104.847 245.319,104.847 L240.817,104.847 C242.145,102.063 244.603,100.272 247.325,100.104 L247.325,100.084 L257.855,100.084 L256.852,92.813 L247.325,92.813 Z" />
        </g>
        <g id="Regular-S">
            <path d="M467.883,96.072 L468.886,103.343 L480.419,103.364 L480.419,103.385 C483.141,103.552 485.598,105.343 486.927,108.127 L482.424,108.127 C476.407,110.135 477.754,111.763 479.416,111.763 C477.754,111.763 476.407,113.39 476.407,115.398 L487.571,115.398 C486.583,119.1 483.73,121.691 480.419,121.896 L480.419,121.916 L472.647,121.896 L473.65,129.166 L480.419,129.187 C487.873,129.187 494.059,123.223 495.253,115.397 L505.991,115.377 L509,108.106 L494.895,108.127 C493.109,101.182 487.304,96.093 480.419,96.093 L467.883,96.072 Z" />
            <path d="M447.325,92.813 C440.439,92.813 434.634,97.902 432.848,104.847 L424.009,104.847 L421,112.118 L432.491,112.118 C433.685,119.944 439.871,125.907 447.325,125.907 L462.367,125.907 L461.365,118.636 L447.325,118.636 L447.325,118.615 C444.014,118.411 441.161,115.82 440.172,112.118 L445.319,112.118 C446.981,112.118 448.328,110.49 448.328,108.482 C448.328,106.475 446.981,104.847 445.319,104.847 L440.817,104.847 C442.145,102.063 444.603,100.272 447.325,100.104 L447.325,100.084 L457.855,100.084 L456.852,92.813 L447.325,92.813 Z" />
        </g>
        <g id="Black-S">
            <path d="M667.883,96.072 L668.886,103.343 L680.419,103.364 L680.419,103.385 C683.141,103.552 685.598,105.343 686.927,108.127 L682.424,108.127 C676.407,110.135 677.754,111.763 679.416,111.763 C677.754,111.763 676.407,113.39 676.407,115.398 L687.571,115.398 C686.583,119.1 683.73,121.691 680.419,121.896 L680.419,121.916 L672.647,121.896 L673.65,129.166 L680.419,129.187 C687.873,129.187 694.059,123.223 695.253,115.397 L705.991,115.377 L709,108.106 L694.895,108.127 C693.109,101.182 687.304,96.093 680.419,96.093 L667.883,96.072 Z" />
            <path d="M647.325,92.813 C640.439,92.813 634.634,97.902 632.849,104.847 L624.009,104.847 L621,112.118 L632.491,112.118 C633.685,119.944 639.871,125.907 647.325,125.907 L662.367,125.907 L661.365,118.636 L647.325,118.636 L647.325,118.615 C644.014,118.411 641.161,115.82 640.172,112.118 L645.319,112.118 C646.981,112.118 648.328,110.49 648.328,108.482 C648.328,106.475 646.981,104.847 645.319,104.847 L640.817,104.847 C642.145,102.063 644.603,100.272 647.325,100.104 L647.325,100.084 L657.855,100.084 L656.852,92.813 L647.325,92.813 Z" />
        </g>
    </g>
</svg>