<?xml version="1.0" encoding="UTF-8"?>
<svg height="600" width="800" xmlns="http://www.w3.org/2000/svg" xmlns:xlink="http://www.w3.org/1999/xlink">
    <g id="Notes" font-family="'LucidaGrande', 'Lucida Grande', sans-serif" font-size="13">
        <rect fill="white" height="600.0" width="800.0" x="0.0" y="0.0" />
        <g font-size="13">
            <text x="18.0" y="176.0">Small</text>
            <text x="18.0" y="376.0">Medium</text>
            <text x="18.0" y="576.0">Large</text>
        </g>
        <g font-size="9">
            <text x="250.0" y="30.0">Ultralight</text>
            <text x="450.0" y="30.0">Regular</text>
            <text x="650.0" y="30.0">Black</text>
            <text id="template-version" fill="#505050" text-anchor="end" x="785.0" y="575.0">Template v.3.0</text>
            <a href="https://wangchujiang.com/#/app">
                <text fill="#505050" text-anchor="end" x="785.0" y="590.0">https://wangchujiang.com/#/app</text>
            </a>
        </g>
    </g>
    <g id="Guides" stroke="rgb(39, 170, 225)" stroke-width="0.5">
        <path id="Capline-S" d="M18,76 l800,0" />
        <path id="H-reference" d="M85,145.755 L87.685,145.755 L113.369,79.287 L114.052,79.287 L114.052,76 L112.148,76 L85,145.755 Z M95.693,121.536 L130.996,121.536 L130.263,119.313 L96.474,119.313 L95.693,121.536 Z M139.15,145.755 L141.787,145.755 L114.638,76 L113.466,76 L113.466,79.287 L139.15,145.755 Z" stroke="none" />
        <path id="Baseline-S" d="M18,146 l800,0" />
        <path id="left-margin-Ultralight-S" d="M215.755,56 l0,110" />
        <path id="right-margin-Ultralight-S" d="M314.245,56 l0,110" />
        <path id="left-margin-Regular-S" d="M415.755,56 l0,110" />
        <path id="right-margin-Regular-S" d="M514.245,56 l0,110" />
        <path id="left-margin-Black-S" d="M615.755,56 l0,110" />
        <path id="right-margin-Black-S" d="M714.245,56 l0,110" />
        <path id="Capline-M" d="M18,276 l800,0" />
        <path id="Baseline-M" d="M18,346 l800,0" />
        <path id="Capline-L" d="M18,476 l800,0" />
        <path id="Baseline-L" d="M18,546 l800,0" />
    </g>
    <g id="Symbols">
        <g id="Ultralight-S">
            <path d="M249.035,76.006 C247.735,76.051 246.496,76.367 245.377,77.012 C243.14,78.303 241.805,80.673 241.204,83.477 C240.605,86.282 240.668,89.617 241.266,93.35 C241.496,94.789 241.834,96.302 242.224,97.849 C240.689,98.285 239.209,98.751 237.848,99.271 C234.316,100.62 231.397,102.233 229.268,104.155 C227.139,106.078 225.755,108.417 225.755,111 C225.755,113.583 227.138,115.924 229.268,117.846 C231.396,119.769 234.315,121.381 237.847,122.73 C239.208,123.25 240.688,123.715 242.223,124.151 C241.833,125.698 241.496,127.212 241.265,128.65 C240.667,132.385 240.605,135.719 241.205,138.523 C241.806,141.328 243.14,143.697 245.377,144.989 C247.614,146.28 250.331,146.252 253.061,145.369 C255.79,144.486 258.647,142.765 261.581,140.38 C262.712,139.461 263.855,138.414 265,137.302 C266.144,138.414 267.287,139.461 268.418,140.38 C271.352,142.765 274.208,144.486 276.937,145.37 C279.666,146.253 282.386,146.28 284.623,144.989 C286.86,143.697 288.195,141.328 288.796,138.524 C289.395,135.719 289.331,132.384 288.733,128.651 C288.502,127.212 288.166,125.698 287.776,124.151 C289.311,123.716 290.791,123.25 292.152,122.73 C295.684,121.382 298.603,119.769 300.732,117.846 C302.861,115.924 304.245,113.583 304.245,111 C304.245,108.417 302.862,106.077 300.732,104.155 C298.603,102.233 295.684,100.619 292.152,99.271 C290.791,98.752 289.312,98.285 287.778,97.849 C288.168,96.302 288.504,94.788 288.734,93.35 C289.332,89.617 289.394,86.282 288.794,83.477 C288.195,80.672 286.86,78.303 284.623,77.012 C282.385,75.721 279.668,75.749 276.939,76.632 C274.21,77.515 271.352,79.237 268.418,81.621 C267.287,82.541 266.143,83.588 264.998,84.7 C263.853,83.589 262.711,82.54 261.58,81.621 C258.647,79.237 255.792,77.514 253.063,76.631 C251.698,76.189 250.336,75.962 249.034,76.005 Z M249.192,79.407 C250.008,79.383 250.942,79.534 252.013,79.879 C254.153,80.572 256.719,82.068 259.428,84.269 C260.472,85.117 261.54,86.098 262.615,87.145 C260.368,89.574 258.14,92.335 255.984,95.383 C252.266,95.727 248.76,96.276 245.533,97.008 C245.165,95.552 244.849,94.138 244.636,92.81 C244.084,89.363 244.072,86.392 244.543,84.192 C245.013,81.993 245.893,80.656 247.084,79.968 C247.679,79.625 248.377,79.429 249.192,79.407 M280.809,79.407 C281.624,79.429 282.321,79.624 282.917,79.968 C284.108,80.655 284.988,81.992 285.458,84.191 C285.928,86.391 285.918,89.363 285.366,92.81 C285.153,94.137 284.837,95.553 284.469,97.008 C281.242,96.276 277.736,95.726 274.017,95.383 C271.861,92.336 269.631,89.574 267.384,87.145 C268.46,86.098 269.529,85.116 270.572,84.269 C273.281,82.066 275.848,80.572 277.988,79.879 C279.058,79.534 279.994,79.384 280.809,79.407 Z M265,89.6 C266.605,91.352 268.128,93.179 269.562,95.073 C268.064,95.006 266.547,94.961 265,94.961 C263.453,94.961 261.937,95.005 260.438,95.073 C261.871,93.178 263.394,91.352 265,89.6 M265,98.374 C267.444,98.374 269.826,98.47 272.134,98.644 C273.476,100.609 274.744,102.625 275.935,104.685 C277.125,106.748 278.236,108.854 279.268,111 C278.236,113.145 277.125,115.251 275.935,117.313 C274.744,119.374 273.476,121.39 272.133,123.357 C269.826,123.53 267.444,123.627 265.001,123.627 C262.619,123.627 260.239,123.537 257.864,123.357 C256.522,121.391 255.255,119.375 254.064,117.313 C252.875,115.251 251.763,113.146 250.732,111.001 C251.764,108.855 252.876,106.749 254.065,104.687 C255.257,102.625 256.525,100.61 257.867,98.643 C260.241,98.464 262.62,98.374 265.001,98.374 Z M253.488,99.087 C252.666,100.367 251.873,101.665 251.109,102.98 C250.351,104.299 249.624,105.635 248.926,106.987 C248.002,104.797 247.181,102.566 246.466,100.299 C248.668,99.809 251.011,99.398 253.489,99.086 M276.513,99.086 C278.871,99.381 281.215,99.785 283.535,100.299 C282.82,102.566 281.999,104.798 281.075,106.988 C280.378,105.635 279.65,104.299 278.892,102.979 C278.128,101.663 277.335,100.365 276.513,99.085 Z M243.149,101.135 C244.129,104.295 245.406,107.607 246.969,110.998 C245.405,114.39 244.13,117.703 243.149,120.863 C241.705,120.455 240.322,120.021 239.065,119.541 C235.803,118.296 233.225,116.82 231.554,115.311 C229.884,113.804 229.167,112.374 229.167,110.998 C229.167,109.624 229.884,108.195 231.554,106.688 C233.225,105.179 235.804,103.703 239.065,102.458 C240.322,101.978 241.705,101.543 243.149,101.134 Z M286.852,101.135 C288.297,101.543 289.68,101.979 290.936,102.459 C294.198,103.704 296.777,105.18 298.447,106.688 C300.117,108.196 300.834,109.625 300.834,110.999 C300.834,112.374 300.117,113.804 298.447,115.312 C296.777,116.82 294.198,118.296 290.937,119.541 C289.68,120.021 288.296,120.455 286.851,120.863 C285.872,117.703 284.595,114.392 283.033,111 C284.596,107.608 285.872,104.296 286.853,101.135 Z M265,104.004 C261.137,104.005 258.005,107.137 258.005,111 C258.005,114.862 261.136,117.994 264.999,117.995 C268.863,117.995 271.995,114.863 271.996,111 C271.996,107.138 268.865,104.005 265.001,104.004 M281.076,115.012 C282,117.202 282.82,119.434 283.535,121.701 C281.335,122.191 278.991,122.603 276.515,122.915 C277.337,121.635 278.129,120.336 278.892,119.019 C279.65,117.7 280.378,116.364 281.075,115.012 Z M248.927,115.013 C249.624,116.365 250.352,117.701 251.11,119.02 C251.874,120.335 252.667,121.634 253.489,122.914 C251.131,122.621 248.787,122.216 246.467,121.701 C247.182,119.434 248.003,117.203 248.927,115.013 M245.532,124.993 C248.759,125.724 252.265,126.273 255.984,126.616 C258.14,129.665 260.37,132.427 262.616,134.857 C261.541,135.903 260.473,136.884 259.43,137.733 C256.72,139.935 254.152,141.431 252.011,142.124 C249.871,142.815 248.273,142.72 247.083,142.033 C245.892,141.345 245.013,140.009 244.543,137.81 C244.072,135.61 244.083,132.639 244.636,129.191 C244.849,127.863 245.163,126.448 245.532,124.993 M284.468,124.993 C284.835,126.448 285.152,127.863 285.365,129.191 C285.917,132.639 285.929,135.61 285.458,137.81 C284.988,140.01 284.108,141.346 282.917,142.035 C281.726,142.722 280.129,142.815 277.988,142.123 C275.848,141.43 273.281,139.933 270.572,137.732 C269.529,136.884 268.46,135.903 267.385,134.856 C269.632,132.428 271.861,129.665 274.017,126.616 C277.734,126.273 281.24,125.724 284.468,124.993 M260.438,126.926 C261.958,126.999 263.479,127.037 265.001,127.04 C266.523,127.037 268.044,126.999 269.565,126.926 C268.131,128.822 266.608,130.65 265.001,132.402 C263.395,130.65 261.872,128.822 260.439,126.926 Z" />
        </g>
        <g id="Regular-S">
            <path d="M449.035,76.006 C447.735,76.051 446.496,76.367 445.377,77.012 C443.14,78.303 441.805,80.673 441.204,83.477 C440.605,86.282 440.668,89.617 441.266,93.35 C441.496,94.789 441.834,96.302 442.224,97.849 C440.689,98.285 439.209,98.751 437.848,99.271 C434.316,100.62 431.397,102.233 429.268,104.155 C427.139,106.078 425.755,108.417 425.755,111 C425.755,113.583 427.138,115.924 429.268,117.846 C431.396,119.769 434.315,121.381 437.847,122.73 C439.208,123.25 440.688,123.715 442.223,124.151 C441.833,125.698 441.496,127.212 441.265,128.65 C440.667,132.385 440.605,135.719 441.205,138.523 C441.806,141.328 443.14,143.697 445.377,144.989 C447.614,146.28 450.331,146.252 453.061,145.369 C455.79,144.486 458.647,142.765 461.581,140.38 C462.712,139.461 463.855,138.414 465,137.302 C466.144,138.414 467.287,139.461 468.418,140.38 C471.352,142.765 474.208,144.486 476.937,145.37 C479.666,146.253 482.386,146.28 484.623,144.989 C486.86,143.697 488.195,141.328 488.796,138.524 C489.395,135.719 489.331,132.384 488.733,128.651 C488.502,127.212 488.166,125.698 487.776,124.151 C489.311,123.716 490.791,123.25 492.152,122.73 C495.684,121.382 498.603,119.769 500.732,117.846 C502.861,115.924 504.245,113.583 504.245,111 C504.245,108.417 502.862,106.077 500.732,104.155 C498.603,102.233 495.684,100.619 492.152,99.271 C490.791,98.752 489.313,98.285 487.778,97.849 C488.168,96.302 488.504,94.788 488.734,93.35 C489.332,89.617 489.394,86.282 488.794,83.477 C488.195,80.672 486.86,78.303 484.623,77.012 C482.385,75.721 479.668,75.749 476.939,76.632 C474.21,77.515 471.352,79.237 468.418,81.621 C467.287,82.541 466.143,83.588 464.998,84.7 C463.853,83.589 462.711,82.54 461.58,81.621 C458.647,79.237 455.792,77.514 453.063,76.631 C451.698,76.189 450.336,75.962 449.035,76.005 Z M449.192,79.407 C450.008,79.383 450.942,79.534 452.013,79.879 C454.153,80.572 456.719,82.068 459.428,84.269 C460.472,85.117 461.54,86.098 462.615,87.145 C460.368,89.574 458.14,92.335 455.984,95.383 C452.266,95.727 448.76,96.276 445.533,97.008 C445.165,95.552 444.849,94.138 444.636,92.81 C444.084,89.363 444.072,86.392 444.543,84.192 C445.013,81.993 445.893,80.656 447.084,79.968 C447.679,79.625 448.377,79.429 449.192,79.407 M480.809,79.407 C481.624,79.429 482.321,79.624 482.917,79.968 C484.108,80.655 484.988,81.992 485.458,84.191 C485.928,86.391 485.918,89.363 485.366,92.81 C485.153,94.137 484.837,95.553 484.469,97.008 C481.242,96.276 477.736,95.726 474.017,95.383 C471.861,92.336 469.631,89.574 467.384,87.145 C468.46,86.098 469.529,85.116 470.572,84.269 C473.281,82.066 475.848,80.572 477.988,79.879 C479.058,79.534 479.994,79.384 480.809,79.407 Z M465,89.6 C466.605,91.352 468.128,93.179 469.562,95.073 C468.064,95.006 466.547,94.961 465,94.961 C463.453,94.961 461.937,95.005 460.438,95.073 C461.871,93.178 463.394,91.352 465,89.6 M465,98.374 C467.444,98.374 469.826,98.47 472.134,98.644 C473.476,100.609 474.744,102.625 475.935,104.685 C477.125,106.748 478.236,108.854 479.268,111 C478.236,113.145 477.125,115.251 475.935,117.313 C474.744,119.374 473.476,121.39 472.133,123.357 C469.826,123.53 467.444,123.627 465.001,123.627 C462.619,123.627 460.239,123.537 457.864,123.357 C456.522,121.391 455.255,119.375 454.064,117.313 C452.875,115.251 451.763,113.146 450.732,111.001 C451.764,108.855 452.876,106.749 454.065,104.687 C455.257,102.625 456.525,100.61 457.867,98.643 C460.241,98.464 462.62,98.374 465.001,98.374 Z M453.488,99.087 C452.666,100.367 451.873,101.665 451.109,102.98 C450.351,104.299 449.624,105.635 448.926,106.987 C448.002,104.797 447.181,102.566 446.466,100.299 C448.668,99.809 451.011,99.398 453.489,99.086 M476.513,99.086 C478.871,99.381 481.215,99.785 483.535,100.299 C482.82,102.566 481.999,104.798 481.075,106.988 C480.378,105.635 479.65,104.299 478.892,102.979 C478.128,101.663 477.335,100.365 476.513,99.085 Z M443.149,101.135 C444.129,104.295 445.406,107.607 446.969,110.998 C445.405,114.39 444.13,117.703 443.149,120.863 C441.705,120.455 440.322,120.021 439.065,119.541 C435.803,118.296 433.225,116.82 431.554,115.311 C429.884,113.804 429.167,112.374 429.167,110.998 C429.167,109.624 429.884,108.195 431.554,106.688 C433.225,105.179 435.804,103.703 439.065,102.458 C440.322,101.978 441.705,101.543 443.149,101.134 Z M486.852,101.135 C488.297,101.543 489.68,101.979 490.936,102.459 C494.198,103.704 496.777,105.18 498.447,106.688 C500.117,108.196 500.835,109.625 500.835,110.999 C500.835,112.374 500.117,113.804 498.447,115.312 C496.777,116.82 494.198,118.296 490.937,119.541 C489.68,120.021 488.296,120.455 486.852,120.863 C485.872,117.703 484.595,114.392 483.033,111 C484.596,107.608 485.872,104.296 486.853,101.135 Z M465,104.004 C461.137,104.005 458.005,107.137 458.005,111 C458.005,114.862 461.136,117.994 464.999,117.995 C468.863,117.995 471.995,114.863 471.996,111 C471.996,107.138 468.865,104.005 465.001,104.004 M481.076,115.012 C482,117.202 482.82,119.434 483.535,121.701 C481.335,122.191 478.991,122.603 476.515,122.915 C477.337,121.635 478.129,120.336 478.892,119.019 C479.65,117.7 480.378,116.364 481.075,115.012 Z M448.927,115.013 C449.625,116.365 450.352,117.701 451.11,119.02 C451.874,120.335 452.667,121.634 453.489,122.914 C451.131,122.621 448.787,122.216 446.467,121.701 C447.182,119.434 448.003,117.203 448.927,115.013 M445.532,124.993 C448.759,125.724 452.265,126.273 455.984,126.616 C458.14,129.665 460.37,132.427 462.616,134.857 C461.541,135.903 460.473,136.884 459.43,137.733 C456.72,139.935 454.152,141.431 452.011,142.124 C449.871,142.815 448.273,142.72 447.083,142.033 C445.892,141.345 445.013,140.009 444.543,137.81 C444.072,135.61 444.083,132.639 444.636,129.191 C444.849,127.863 445.163,126.448 445.532,124.993 M484.468,124.993 C484.835,126.448 485.152,127.863 485.365,129.191 C485.917,132.639 485.929,135.61 485.458,137.81 C484.988,140.01 484.108,141.346 482.917,142.035 C481.726,142.722 480.129,142.815 477.988,142.123 C475.848,141.43 473.281,139.933 470.572,137.732 C469.529,136.884 468.46,135.903 467.385,134.856 C469.632,132.428 471.861,129.665 474.017,126.616 C477.735,126.273 481.24,125.724 484.468,124.993 M460.438,126.926 C461.958,126.999 463.479,127.037 465.001,127.04 C466.523,127.037 468.045,126.999 469.565,126.926 C468.131,128.822 466.608,130.65 465.001,132.402 C463.395,130.65 461.873,128.822 460.439,126.926 Z" />
        </g>
        <g id="Black-S">
            <path d="M649.035,76.006 C647.735,76.051 646.496,76.367 645.377,77.012 C643.14,78.303 641.805,80.673 641.204,83.477 C640.605,86.282 640.668,89.617 641.266,93.35 C641.496,94.789 641.834,96.302 642.224,97.849 C640.689,98.285 639.209,98.751 637.848,99.271 C634.316,100.62 631.397,102.233 629.268,104.155 C627.139,106.078 625.755,108.417 625.755,111 C625.755,113.583 627.138,115.924 629.268,117.846 C631.396,119.769 634.315,121.381 637.847,122.73 C639.208,123.25 640.688,123.715 642.223,124.151 C641.833,125.698 641.496,127.212 641.265,128.65 C640.667,132.385 640.605,135.719 641.205,138.523 C641.806,141.328 643.14,143.697 645.377,144.989 C647.614,146.28 650.331,146.252 653.061,145.369 C655.79,144.486 658.647,142.765 661.581,140.38 C662.712,139.461 663.855,138.414 665,137.302 C666.144,138.414 667.287,139.461 668.418,140.38 C671.352,142.765 674.208,144.486 676.937,145.37 C679.666,146.253 682.386,146.28 684.623,144.989 C686.86,143.697 688.195,141.328 688.796,138.524 C689.395,135.719 689.331,132.384 688.733,128.651 C688.502,127.212 688.166,125.698 687.776,124.151 C689.311,123.716 690.791,123.25 692.152,122.73 C695.684,121.382 698.603,119.769 700.732,117.846 C702.861,115.924 704.245,113.583 704.245,111 C704.245,108.417 702.862,106.077 700.732,104.155 C698.603,102.233 695.684,100.619 692.152,99.271 C690.791,98.752 689.312,98.285 687.778,97.849 C688.168,96.302 688.504,94.788 688.734,93.35 C689.332,89.617 689.394,86.282 688.794,83.477 C688.195,80.672 686.86,78.303 684.623,77.012 C682.385,75.721 679.668,75.749 676.939,76.632 C674.21,77.515 671.352,79.237 668.418,81.621 C667.287,82.541 666.143,83.588 664.998,84.7 C663.853,83.589 662.711,82.54 661.58,81.621 C658.647,79.237 655.792,77.514 653.063,76.631 C651.698,76.189 650.336,75.962 649.034,76.005 Z M649.192,79.407 C650.008,79.383 650.942,79.534 652.013,79.879 C654.153,80.572 656.719,82.068 659.428,84.269 C660.472,85.117 661.54,86.098 662.615,87.145 C660.368,89.574 658.14,92.335 655.984,95.383 C652.266,95.727 648.76,96.276 645.533,97.008 C645.165,95.552 644.849,94.138 644.636,92.81 C644.084,89.363 644.072,86.392 644.543,84.192 C645.013,81.993 645.893,80.656 647.084,79.968 C647.679,79.625 648.377,79.429 649.192,79.407 M680.809,79.407 C681.624,79.429 682.321,79.624 682.917,79.968 C684.108,80.655 684.988,81.992 685.458,84.191 C685.928,86.391 685.918,89.363 685.366,92.81 C685.153,94.137 684.837,95.553 684.469,97.008 C681.242,96.276 677.736,95.726 674.017,95.383 C671.861,92.336 669.631,89.574 667.384,87.145 C668.46,86.098 669.529,85.116 670.572,84.269 C673.281,82.066 675.848,80.572 677.988,79.879 C679.058,79.534 679.994,79.384 680.809,79.407 Z M665,89.6 C666.605,91.352 668.128,93.179 669.562,95.073 C668.064,95.006 666.547,94.961 665,94.961 C663.453,94.961 661.937,95.005 660.438,95.073 C661.871,93.178 663.394,91.352 665,89.6 M665,98.374 C667.444,98.374 669.826,98.47 672.134,98.644 C673.476,100.609 674.744,102.625 675.935,104.685 C677.125,106.748 678.236,108.854 679.268,111 C678.236,113.145 677.125,115.251 675.935,117.313 C674.744,119.374 673.476,121.39 672.133,123.357 C669.826,123.53 667.444,123.627 665.001,123.627 C662.619,123.627 660.239,123.537 657.864,123.357 C656.522,121.391 655.255,119.375 654.064,117.313 C652.875,115.251 651.763,113.146 650.732,111.001 C651.764,108.855 652.876,106.749 654.065,104.687 C655.257,102.625 656.525,100.61 657.867,98.643 C660.241,98.464 662.62,98.374 665.001,98.374 Z M653.488,99.087 C652.666,100.367 651.873,101.665 651.109,102.98 C650.351,104.299 649.624,105.635 648.926,106.987 C648.002,104.797 647.181,102.566 646.466,100.299 C648.668,99.809 651.011,99.398 653.489,99.086 M676.513,99.086 C678.871,99.381 681.215,99.785 683.535,100.299 C682.82,102.566 681.999,104.798 681.075,106.988 C680.378,105.635 679.65,104.299 678.892,102.979 C678.128,101.663 677.335,100.365 676.513,99.085 Z M643.149,101.135 C644.129,104.295 645.406,107.607 646.969,110.998 C645.405,114.39 644.13,117.703 643.149,120.863 C641.705,120.455 640.322,120.021 639.065,119.541 C635.803,118.296 633.225,116.82 631.554,115.311 C629.884,113.804 629.167,112.374 629.167,110.998 C629.167,109.624 629.884,108.195 631.554,106.688 C633.225,105.179 635.804,103.703 639.065,102.458 C640.322,101.978 641.705,101.543 643.149,101.134 Z M686.852,101.135 C688.297,101.543 689.68,101.979 690.936,102.459 C694.198,103.704 696.777,105.18 698.447,106.688 C700.117,108.196 700.834,109.625 700.834,110.999 C700.834,112.374 700.117,113.804 698.447,115.312 C696.777,116.82 694.198,118.296 690.937,119.541 C689.68,120.021 688.296,120.455 686.852,120.863 C685.872,117.703 684.595,114.392 683.033,111 C684.596,107.608 685.872,104.296 686.853,101.135 Z M665,104.004 C661.137,104.005 658.005,107.137 658.005,111 C658.005,114.862 661.136,117.994 664.999,117.995 C668.863,117.995 671.995,114.863 671.996,111 C671.996,107.138 668.865,104.005 665.001,104.004 M681.076,115.012 C682,117.202 682.82,119.434 683.535,121.701 C681.335,122.191 678.991,122.603 676.515,122.915 C677.337,121.635 678.129,120.336 678.892,119.019 C679.65,117.7 680.378,116.364 681.075,115.012 Z M648.927,115.013 C649.625,116.365 650.352,117.701 651.11,119.02 C651.874,120.335 652.667,121.634 653.489,122.914 C651.131,122.621 648.787,122.216 646.467,121.701 C647.182,119.434 648.003,117.203 648.927,115.013 M645.532,124.993 C648.759,125.724 652.265,126.273 655.984,126.616 C658.14,129.665 660.37,132.427 662.616,134.857 C661.541,135.903 660.473,136.884 659.43,137.733 C656.72,139.935 654.152,141.431 652.011,142.124 C649.871,142.815 648.273,142.72 647.083,142.033 C645.892,141.345 645.013,140.009 644.543,137.81 C644.072,135.61 644.083,132.639 644.636,129.191 C644.849,127.863 645.163,126.448 645.532,124.993 M684.468,124.993 C684.835,126.448 685.152,127.863 685.365,129.191 C685.917,132.639 685.929,135.61 685.458,137.81 C684.988,140.01 684.108,141.346 682.917,142.035 C681.726,142.722 680.129,142.815 677.988,142.123 C675.848,141.43 673.281,139.933 670.572,137.732 C669.529,136.884 668.46,135.903 667.385,134.856 C669.632,132.428 671.861,129.665 674.017,126.616 C677.734,126.273 681.24,125.724 684.468,124.993 M660.438,126.926 C661.958,126.999 663.479,127.037 665.001,127.04 C666.523,127.037 668.045,126.999 669.565,126.926 C668.131,128.822 666.608,130.65 665.001,132.402 C663.395,130.65 661.873,128.822 660.439,126.926 Z" />
        </g>
    </g>
</svg>